# xmcd
#
# Track frame offsets: 
#        150
#        41756
#        59808
#        91397
#        115535
#        138814
#        154544
#        173139
#        195930
#        214264
#        229203
#
# Disc length: 3264 seconds
#
# Revision: 0
# Processed by: cddbd v1.5.1PL0 Copyright (c) Steve Scherf et al.
# Submitted via: ExactAudioCopy v0.95a3
#
DISCID=900cbe0b
DTITLE=Johnny Copeland - Bremen 1983
DYEAR=1900
DGENRE=
TTITLE0=Funny Feeling
TTITLE1=Just One More Time
TTITLE2=Done Got Over It
TTITLE3=I De Go Now
TTITLE4=Early In The Morning
TTITLE5=Boogie Woogie Nighthawk
TTITLE6=Natural Born Believer
TTITLE7=Honky Tonk
TTITLE8=Everybody Wants A Piece Of Me
TTITLE9=Well Well Baby-La
TTITLE10=Claim Jumper [faded out]
EXTD=
EXTT0=
EXTT1=
EXTT2=
EXTT3=
EXTT4=
EXTT5=
EXTT6=
EXTT7=
EXTT8=
EXTT9=
EXTT10=
PLAYORDER=
